<?xml version="1.0" encoding="UTF-8"?>
<svg xmlns="http://www.w3.org/2000/svg" xmlns:xlink="http://www.w3.org/1999/xlink" width="50px" height="50px" viewBox="0 0 50 50" version="1.1">
<g id="surface1">
<path style=" stroke:none;fill-rule:nonzero;fill:rgb(0%,0%,0%);fill-opacity:1;" d="M 15.625 0 L 18.75 0 L 18.75 3.125 L 15.625 3.125 Z M 15.625 0 "/>
<path style=" stroke:none;fill-rule:nonzero;fill:rgb(0%,0%,0%);fill-opacity:1;" d="M 18.75 0 L 21.875 0 L 21.875 3.125 L 18.75 3.125 Z M 18.75 0 "/>
<path style=" stroke:none;fill-rule:nonzero;fill:rgb(0%,0%,0%);fill-opacity:1;" d="M 21.875 0 L 25 0 L 25 3.125 L 21.875 3.125 Z M 21.875 0 "/>
<path style=" stroke:none;fill-rule:nonzero;fill:rgb(0%,0%,0%);fill-opacity:1;" d="M 25 0 L 28.125 0 L 28.125 3.125 L 25 3.125 Z M 25 0 "/>
<path style=" stroke:none;fill-rule:nonzero;fill:rgb(0%,0%,0%);fill-opacity:1;" d="M 28.125 0 L 31.25 0 L 31.25 3.125 L 28.125 3.125 Z M 28.125 0 "/>
<path style=" stroke:none;fill-rule:nonzero;fill:rgb(0%,0%,0%);fill-opacity:1;" d="M 31.25 0 L 34.375 0 L 34.375 3.125 L 31.25 3.125 Z M 31.25 0 "/>
<path style=" stroke:none;fill-rule:nonzero;fill:rgb(0%,0%,0%);fill-opacity:1;" d="M 9.375 3.125 L 12.5 3.125 L 12.5 6.25 L 9.375 6.25 Z M 9.375 3.125 "/>
<path style=" stroke:none;fill-rule:nonzero;fill:rgb(0%,0%,0%);fill-opacity:1;" d="M 12.5 3.125 L 15.625 3.125 L 15.625 6.25 L 12.5 6.25 Z M 12.5 3.125 "/>
<path style=" stroke:none;fill-rule:nonzero;fill:rgb(100%,69.01961%,22.352941%);fill-opacity:1;" d="M 15.625 3.125 L 18.75 3.125 L 18.75 6.25 L 15.625 6.25 Z M 15.625 3.125 "/>
<path style=" stroke:none;fill-rule:nonzero;fill:rgb(100%,69.01961%,22.352941%);fill-opacity:1;" d="M 18.75 3.125 L 21.875 3.125 L 21.875 6.25 L 18.75 6.25 Z M 18.75 3.125 "/>
<path style=" stroke:none;fill-rule:nonzero;fill:rgb(100%,69.01961%,22.352941%);fill-opacity:1;" d="M 21.875 3.125 L 25 3.125 L 25 6.25 L 21.875 6.25 Z M 21.875 3.125 "/>
<path style=" stroke:none;fill-rule:nonzero;fill:rgb(100%,69.01961%,22.352941%);fill-opacity:1;" d="M 25 3.125 L 28.125 3.125 L 28.125 6.25 L 25 6.25 Z M 25 3.125 "/>
<path style=" stroke:none;fill-rule:nonzero;fill:rgb(100%,69.01961%,22.352941%);fill-opacity:1;" d="M 28.125 3.125 L 31.25 3.125 L 31.25 6.25 L 28.125 6.25 Z M 28.125 3.125 "/>
<path style=" stroke:none;fill-rule:nonzero;fill:rgb(100%,69.01961%,22.352941%);fill-opacity:1;" d="M 31.25 3.125 L 34.375 3.125 L 34.375 6.25 L 31.25 6.25 Z M 31.25 3.125 "/>
<path style=" stroke:none;fill-rule:nonzero;fill:rgb(0%,0%,0%);fill-opacity:1;" d="M 34.375 3.125 L 37.5 3.125 L 37.5 6.25 L 34.375 6.25 Z M 34.375 3.125 "/>
<path style=" stroke:none;fill-rule:nonzero;fill:rgb(0%,0%,0%);fill-opacity:1;" d="M 37.5 3.125 L 40.625 3.125 L 40.625 6.25 L 37.5 6.25 Z M 37.5 3.125 "/>
<path style=" stroke:none;fill-rule:nonzero;fill:rgb(0%,0%,0%);fill-opacity:1;" d="M 6.25 6.25 L 9.375 6.25 L 9.375 9.375 L 6.25 9.375 Z M 6.25 6.25 "/>
<path style=" stroke:none;fill-rule:nonzero;fill:rgb(100%,69.01961%,22.352941%);fill-opacity:1;" d="M 9.375 6.25 L 12.5 6.25 L 12.5 9.375 L 9.375 9.375 Z M 9.375 6.25 "/>
<path style=" stroke:none;fill-rule:nonzero;fill:rgb(100%,69.01961%,22.352941%);fill-opacity:1;" d="M 12.5 6.25 L 15.625 6.25 L 15.625 9.375 L 12.5 9.375 Z M 12.5 6.25 "/>
<path style=" stroke:none;fill-rule:nonzero;fill:rgb(100%,100%,98.431373%);fill-opacity:1;" d="M 15.625 6.25 L 18.75 6.25 L 18.75 9.375 L 15.625 9.375 Z M 15.625 6.25 "/>
<path style=" stroke:none;fill-rule:nonzero;fill:rgb(100%,90.980393%,36.862746%);fill-opacity:1;" d="M 18.75 6.25 L 21.875 6.25 L 21.875 9.375 L 18.75 9.375 Z M 18.75 6.25 "/>
<path style=" stroke:none;fill-rule:nonzero;fill:rgb(100%,90.980393%,36.862746%);fill-opacity:1;" d="M 21.875 6.25 L 25 6.25 L 25 9.375 L 21.875 9.375 Z M 21.875 6.25 "/>
<path style=" stroke:none;fill-rule:nonzero;fill:rgb(100%,90.980393%,36.862746%);fill-opacity:1;" d="M 25 6.25 L 28.125 6.25 L 28.125 9.375 L 25 9.375 Z M 25 6.25 "/>
<path style=" stroke:none;fill-rule:nonzero;fill:rgb(100%,90.980393%,36.862746%);fill-opacity:1;" d="M 28.125 6.25 L 31.25 6.25 L 31.25 9.375 L 28.125 9.375 Z M 28.125 6.25 "/>
<path style=" stroke:none;fill-rule:nonzero;fill:rgb(100%,90.980393%,36.862746%);fill-opacity:1;" d="M 31.25 6.25 L 34.375 6.25 L 34.375 9.375 L 31.25 9.375 Z M 31.25 6.25 "/>
<path style=" stroke:none;fill-rule:nonzero;fill:rgb(85.882354%,44.313726%,1.176471%);fill-opacity:1;" d="M 34.375 6.25 L 37.5 6.25 L 37.5 9.375 L 34.375 9.375 Z M 34.375 6.25 "/>
<path style=" stroke:none;fill-rule:nonzero;fill:rgb(85.882354%,44.313726%,1.176471%);fill-opacity:1;" d="M 37.5 6.25 L 40.625 6.25 L 40.625 9.375 L 37.5 9.375 Z M 37.5 6.25 "/>
<path style=" stroke:none;fill-rule:nonzero;fill:rgb(0%,0%,0%);fill-opacity:1;" d="M 40.625 6.25 L 43.75 6.25 L 43.75 9.375 L 40.625 9.375 Z M 40.625 6.25 "/>
<path style=" stroke:none;fill-rule:nonzero;fill:rgb(0%,0%,0%);fill-opacity:1;" d="M 3.125 9.375 L 6.25 9.375 L 6.25 12.5 L 3.125 12.5 Z M 3.125 9.375 "/>
<path style=" stroke:none;fill-rule:nonzero;fill:rgb(100%,69.01961%,22.352941%);fill-opacity:1;" d="M 6.25 9.375 L 9.375 9.375 L 9.375 12.5 L 6.25 12.5 Z M 6.25 9.375 "/>
<path style=" stroke:none;fill-rule:nonzero;fill:rgb(100%,100%,98.431373%);fill-opacity:1;" d="M 9.375 9.375 L 12.5 9.375 L 12.5 12.5 L 9.375 12.5 Z M 9.375 9.375 "/>
<path style=" stroke:none;fill-rule:nonzero;fill:rgb(100%,100%,98.431373%);fill-opacity:1;" d="M 12.5 9.375 L 15.625 9.375 L 15.625 12.5 L 12.5 12.5 Z M 12.5 9.375 "/>
<path style=" stroke:none;fill-rule:nonzero;fill:rgb(100%,90.980393%,36.862746%);fill-opacity:1;" d="M 15.625 9.375 L 18.75 9.375 L 18.75 12.5 L 15.625 12.5 Z M 15.625 9.375 "/>
<path style=" stroke:none;fill-rule:nonzero;fill:rgb(85.882354%,44.313726%,1.176471%);fill-opacity:1;" d="M 18.75 9.375 L 21.875 9.375 L 21.875 12.5 L 18.75 12.5 Z M 18.75 9.375 "/>
<path style=" stroke:none;fill-rule:nonzero;fill:rgb(85.882354%,44.313726%,1.176471%);fill-opacity:1;" d="M 21.875 9.375 L 25 9.375 L 25 12.5 L 21.875 12.5 Z M 21.875 9.375 "/>
<path style=" stroke:none;fill-rule:nonzero;fill:rgb(85.882354%,44.313726%,1.176471%);fill-opacity:1;" d="M 25 9.375 L 28.125 9.375 L 28.125 12.5 L 25 12.5 Z M 25 9.375 "/>
<path style=" stroke:none;fill-rule:nonzero;fill:rgb(85.882354%,44.313726%,1.176471%);fill-opacity:1;" d="M 28.125 9.375 L 31.25 9.375 L 31.25 12.5 L 28.125 12.5 Z M 28.125 9.375 "/>
<path style=" stroke:none;fill-rule:nonzero;fill:rgb(100%,90.980393%,36.862746%);fill-opacity:1;" d="M 31.25 9.375 L 34.375 9.375 L 34.375 12.5 L 31.25 12.5 Z M 31.25 9.375 "/>
<path style=" stroke:none;fill-rule:nonzero;fill:rgb(100%,90.980393%,36.862746%);fill-opacity:1;" d="M 34.375 9.375 L 37.5 9.375 L 37.5 12.5 L 34.375 12.5 Z M 34.375 9.375 "/>
<path style=" stroke:none;fill-rule:nonzero;fill:rgb(100%,90.980393%,36.862746%);fill-opacity:1;" d="M 37.5 9.375 L 40.625 9.375 L 40.625 12.5 L 37.5 12.5 Z M 37.5 9.375 "/>
<path style=" stroke:none;fill-rule:nonzero;fill:rgb(85.882354%,44.313726%,1.176471%);fill-opacity:1;" d="M 40.625 9.375 L 43.75 9.375 L 43.75 12.5 L 40.625 12.5 Z M 40.625 9.375 "/>
<path style=" stroke:none;fill-rule:nonzero;fill:rgb(0%,0%,0%);fill-opacity:1;" d="M 43.75 9.375 L 46.875 9.375 L 46.875 12.5 L 43.75 12.5 Z M 43.75 9.375 "/>
<path style=" stroke:none;fill-rule:nonzero;fill:rgb(0%,0%,0%);fill-opacity:1;" d="M 3.125 12.5 L 6.25 12.5 L 6.25 15.625 L 3.125 15.625 Z M 3.125 12.5 "/>
<path style=" stroke:none;fill-rule:nonzero;fill:rgb(100%,69.01961%,22.352941%);fill-opacity:1;" d="M 6.25 12.5 L 9.375 12.5 L 9.375 15.625 L 6.25 15.625 Z M 6.25 12.5 "/>
<path style=" stroke:none;fill-rule:nonzero;fill:rgb(100%,100%,98.431373%);fill-opacity:1;" d="M 9.375 12.5 L 12.5 12.5 L 12.5 15.625 L 9.375 15.625 Z M 9.375 12.5 "/>
<path style=" stroke:none;fill-rule:nonzero;fill:rgb(85.882354%,44.313726%,1.176471%);fill-opacity:1;" d="M 12.5 12.5 L 15.625 12.5 L 15.625 15.625 L 12.5 15.625 Z M 12.5 12.5 "/>
<path style=" stroke:none;fill-rule:nonzero;fill:rgb(85.882354%,44.313726%,1.176471%);fill-opacity:1;" d="M 15.625 12.5 L 18.75 12.5 L 18.75 15.625 L 15.625 15.625 Z M 15.625 12.5 "/>
<path style=" stroke:none;fill-rule:nonzero;fill:rgb(100%,69.01961%,22.352941%);fill-opacity:1;" d="M 18.75 12.5 L 21.875 12.5 L 21.875 15.625 L 18.75 15.625 Z M 18.75 12.5 "/>
<path style=" stroke:none;fill-rule:nonzero;fill:rgb(100%,69.01961%,22.352941%);fill-opacity:1;" d="M 21.875 12.5 L 25 12.5 L 25 15.625 L 21.875 15.625 Z M 21.875 12.5 "/>
<path style=" stroke:none;fill-rule:nonzero;fill:rgb(100%,69.01961%,22.352941%);fill-opacity:1;" d="M 25 12.5 L 28.125 12.5 L 28.125 15.625 L 25 15.625 Z M 25 12.5 "/>
<path style=" stroke:none;fill-rule:nonzero;fill:rgb(100%,69.01961%,22.352941%);fill-opacity:1;" d="M 28.125 12.5 L 31.25 12.5 L 31.25 15.625 L 28.125 15.625 Z M 28.125 12.5 "/>
<path style=" stroke:none;fill-rule:nonzero;fill:rgb(85.882354%,44.313726%,1.176471%);fill-opacity:1;" d="M 31.25 12.5 L 34.375 12.5 L 34.375 15.625 L 31.25 15.625 Z M 31.25 12.5 "/>
<path style=" stroke:none;fill-rule:nonzero;fill:rgb(85.882354%,44.313726%,1.176471%);fill-opacity:1;" d="M 34.375 12.5 L 37.5 12.5 L 37.5 15.625 L 34.375 15.625 Z M 34.375 12.5 "/>
<path style=" stroke:none;fill-rule:nonzero;fill:rgb(100%,90.980393%,36.862746%);fill-opacity:1;" d="M 37.5 12.5 L 40.625 12.5 L 40.625 15.625 L 37.5 15.625 Z M 37.5 12.5 "/>
<path style=" stroke:none;fill-rule:nonzero;fill:rgb(85.882354%,44.313726%,1.176471%);fill-opacity:1;" d="M 40.625 12.5 L 43.75 12.5 L 43.75 15.625 L 40.625 15.625 Z M 40.625 12.5 "/>
<path style=" stroke:none;fill-rule:nonzero;fill:rgb(0%,0%,0%);fill-opacity:1;" d="M 43.75 12.5 L 46.875 12.5 L 46.875 15.625 L 43.75 15.625 Z M 43.75 12.5 "/>
<path style=" stroke:none;fill-rule:nonzero;fill:rgb(0%,0%,0%);fill-opacity:1;" d="M 0 15.625 L 3.125 15.625 L 3.125 18.75 L 0 18.75 Z M 0 15.625 "/>
<path style=" stroke:none;fill-rule:nonzero;fill:rgb(100%,69.01961%,22.352941%);fill-opacity:1;" d="M 3.125 15.625 L 6.25 15.625 L 6.25 18.75 L 3.125 18.75 Z M 3.125 15.625 "/>
<path style=" stroke:none;fill-rule:nonzero;fill:rgb(100%,100%,98.431373%);fill-opacity:1;" d="M 6.25 15.625 L 9.375 15.625 L 9.375 18.75 L 6.25 18.75 Z M 6.25 15.625 "/>
<path style=" stroke:none;fill-rule:nonzero;fill:rgb(100%,90.980393%,36.862746%);fill-opacity:1;" d="M 9.375 15.625 L 12.5 15.625 L 12.5 18.75 L 9.375 18.75 Z M 9.375 15.625 "/>
<path style=" stroke:none;fill-rule:nonzero;fill:rgb(85.882354%,44.313726%,1.176471%);fill-opacity:1;" d="M 12.5 15.625 L 15.625 15.625 L 15.625 18.75 L 12.5 18.75 Z M 12.5 15.625 "/>
<path style=" stroke:none;fill-rule:nonzero;fill:rgb(100%,69.01961%,22.352941%);fill-opacity:1;" d="M 15.625 15.625 L 18.75 15.625 L 18.75 18.75 L 15.625 18.75 Z M 15.625 15.625 "/>
<path style=" stroke:none;fill-rule:nonzero;fill:rgb(100%,69.01961%,22.352941%);fill-opacity:1;" d="M 18.75 15.625 L 21.875 15.625 L 21.875 18.75 L 18.75 18.75 Z M 18.75 15.625 "/>
<path style=" stroke:none;fill-rule:nonzero;fill:rgb(100%,69.01961%,22.352941%);fill-opacity:1;" d="M 21.875 15.625 L 25 15.625 L 25 18.75 L 21.875 18.75 Z M 21.875 15.625 "/>
<path style=" stroke:none;fill-rule:nonzero;fill:rgb(100%,69.01961%,22.352941%);fill-opacity:1;" d="M 25 15.625 L 28.125 15.625 L 28.125 18.75 L 25 18.75 Z M 25 15.625 "/>
<path style=" stroke:none;fill-rule:nonzero;fill:rgb(100%,90.980393%,36.862746%);fill-opacity:1;" d="M 28.125 15.625 L 31.25 15.625 L 31.25 18.75 L 28.125 18.75 Z M 28.125 15.625 "/>
<path style=" stroke:none;fill-rule:nonzero;fill:rgb(100%,90.980393%,36.862746%);fill-opacity:1;" d="M 31.25 15.625 L 34.375 15.625 L 34.375 18.75 L 31.25 18.75 Z M 31.25 15.625 "/>
<path style=" stroke:none;fill-rule:nonzero;fill:rgb(85.882354%,44.313726%,1.176471%);fill-opacity:1;" d="M 34.375 15.625 L 37.5 15.625 L 37.5 18.75 L 34.375 18.75 Z M 34.375 15.625 "/>
<path style=" stroke:none;fill-rule:nonzero;fill:rgb(100%,90.980393%,36.862746%);fill-opacity:1;" d="M 37.5 15.625 L 40.625 15.625 L 40.625 18.75 L 37.5 18.75 Z M 37.5 15.625 "/>
<path style=" stroke:none;fill-rule:nonzero;fill:rgb(100%,90.980393%,36.862746%);fill-opacity:1;" d="M 40.625 15.625 L 43.75 15.625 L 43.75 18.75 L 40.625 18.75 Z M 40.625 15.625 "/>
<path style=" stroke:none;fill-rule:nonzero;fill:rgb(85.882354%,44.313726%,1.176471%);fill-opacity:1;" d="M 43.75 15.625 L 46.875 15.625 L 46.875 18.75 L 43.75 18.75 Z M 43.75 15.625 "/>
<path style=" stroke:none;fill-rule:nonzero;fill:rgb(0%,0%,0%);fill-opacity:1;" d="M 46.875 15.625 L 50 15.625 L 50 18.75 L 46.875 18.75 Z M 46.875 15.625 "/>
<path style=" stroke:none;fill-rule:nonzero;fill:rgb(0%,0%,0%);fill-opacity:1;" d="M 0 18.75 L 3.125 18.75 L 3.125 21.875 L 0 21.875 Z M 0 18.75 "/>
<path style=" stroke:none;fill-rule:nonzero;fill:rgb(100%,69.01961%,22.352941%);fill-opacity:1;" d="M 3.125 18.75 L 6.25 18.75 L 6.25 21.875 L 3.125 21.875 Z M 3.125 18.75 "/>
<path style=" stroke:none;fill-rule:nonzero;fill:rgb(100%,90.980393%,36.862746%);fill-opacity:1;" d="M 6.25 18.75 L 9.375 18.75 L 9.375 21.875 L 6.25 21.875 Z M 6.25 18.75 "/>
<path style=" stroke:none;fill-rule:nonzero;fill:rgb(85.882354%,44.313726%,1.176471%);fill-opacity:1;" d="M 9.375 18.75 L 12.5 18.75 L 12.5 21.875 L 9.375 21.875 Z M 9.375 18.75 "/>
<path style=" stroke:none;fill-rule:nonzero;fill:rgb(100%,69.01961%,22.352941%);fill-opacity:1;" d="M 12.5 18.75 L 15.625 18.75 L 15.625 21.875 L 12.5 21.875 Z M 12.5 18.75 "/>
<path style=" stroke:none;fill-rule:nonzero;fill:rgb(100%,69.01961%,22.352941%);fill-opacity:1;" d="M 15.625 18.75 L 18.75 18.75 L 18.75 21.875 L 15.625 21.875 Z M 15.625 18.75 "/>
<path style=" stroke:none;fill-rule:nonzero;fill:rgb(100%,69.01961%,22.352941%);fill-opacity:1;" d="M 18.75 18.75 L 21.875 18.75 L 21.875 21.875 L 18.75 21.875 Z M 18.75 18.75 "/>
<path style=" stroke:none;fill-rule:nonzero;fill:rgb(100%,90.980393%,36.862746%);fill-opacity:1;" d="M 21.875 18.75 L 25 18.75 L 25 21.875 L 21.875 21.875 Z M 21.875 18.75 "/>
<path style=" stroke:none;fill-rule:nonzero;fill:rgb(100%,90.980393%,36.862746%);fill-opacity:1;" d="M 25 18.75 L 28.125 18.75 L 28.125 21.875 L 25 21.875 Z M 25 18.75 "/>
<path style=" stroke:none;fill-rule:nonzero;fill:rgb(100%,90.980393%,36.862746%);fill-opacity:1;" d="M 28.125 18.75 L 31.25 18.75 L 31.25 21.875 L 28.125 21.875 Z M 28.125 18.75 "/>
<path style=" stroke:none;fill-rule:nonzero;fill:rgb(100%,90.980393%,36.862746%);fill-opacity:1;" d="M 31.25 18.75 L 34.375 18.75 L 34.375 21.875 L 31.25 21.875 Z M 31.25 18.75 "/>
<path style=" stroke:none;fill-rule:nonzero;fill:rgb(100%,90.980393%,36.862746%);fill-opacity:1;" d="M 34.375 18.75 L 37.5 18.75 L 37.5 21.875 L 34.375 21.875 Z M 34.375 18.75 "/>
<path style=" stroke:none;fill-rule:nonzero;fill:rgb(100%,69.01961%,22.352941%);fill-opacity:1;" d="M 37.5 18.75 L 40.625 18.75 L 40.625 21.875 L 37.5 21.875 Z M 37.5 18.75 "/>
<path style=" stroke:none;fill-rule:nonzero;fill:rgb(100%,90.980393%,36.862746%);fill-opacity:1;" d="M 40.625 18.75 L 43.75 18.75 L 43.75 21.875 L 40.625 21.875 Z M 40.625 18.75 "/>
<path style=" stroke:none;fill-rule:nonzero;fill:rgb(85.882354%,44.313726%,1.176471%);fill-opacity:1;" d="M 43.75 18.75 L 46.875 18.75 L 46.875 21.875 L 43.75 21.875 Z M 43.75 18.75 "/>
<path style=" stroke:none;fill-rule:nonzero;fill:rgb(0%,0%,0%);fill-opacity:1;" d="M 46.875 18.75 L 50 18.75 L 50 21.875 L 46.875 21.875 Z M 46.875 18.75 "/>
<path style=" stroke:none;fill-rule:nonzero;fill:rgb(0%,0%,0%);fill-opacity:1;" d="M 0 21.875 L 3.125 21.875 L 3.125 25 L 0 25 Z M 0 21.875 "/>
<path style=" stroke:none;fill-rule:nonzero;fill:rgb(100%,69.01961%,22.352941%);fill-opacity:1;" d="M 3.125 21.875 L 6.25 21.875 L 6.25 25 L 3.125 25 Z M 3.125 21.875 "/>
<path style=" stroke:none;fill-rule:nonzero;fill:rgb(100%,90.980393%,36.862746%);fill-opacity:1;" d="M 6.25 21.875 L 9.375 21.875 L 9.375 25 L 6.25 25 Z M 6.25 21.875 "/>
<path style=" stroke:none;fill-rule:nonzero;fill:rgb(85.882354%,44.313726%,1.176471%);fill-opacity:1;" d="M 9.375 21.875 L 12.5 21.875 L 12.5 25 L 9.375 25 Z M 9.375 21.875 "/>
<path style=" stroke:none;fill-rule:nonzero;fill:rgb(100%,69.01961%,22.352941%);fill-opacity:1;" d="M 12.5 21.875 L 15.625 21.875 L 15.625 25 L 12.5 25 Z M 12.5 21.875 "/>
<path style=" stroke:none;fill-rule:nonzero;fill:rgb(100%,69.01961%,22.352941%);fill-opacity:1;" d="M 15.625 21.875 L 18.75 21.875 L 18.75 25 L 15.625 25 Z M 15.625 21.875 "/>
<path style=" stroke:none;fill-rule:nonzero;fill:rgb(100%,90.980393%,36.862746%);fill-opacity:1;" d="M 18.75 21.875 L 21.875 21.875 L 21.875 25 L 18.75 25 Z M 18.75 21.875 "/>
<path style=" stroke:none;fill-rule:nonzero;fill:rgb(100%,90.980393%,36.862746%);fill-opacity:1;" d="M 21.875 21.875 L 25 21.875 L 25 25 L 21.875 25 Z M 21.875 21.875 "/>
<path style=" stroke:none;fill-rule:nonzero;fill:rgb(100%,90.980393%,36.862746%);fill-opacity:1;" d="M 25 21.875 L 28.125 21.875 L 28.125 25 L 25 25 Z M 25 21.875 "/>
<path style=" stroke:none;fill-rule:nonzero;fill:rgb(100%,90.980393%,36.862746%);fill-opacity:1;" d="M 28.125 21.875 L 31.25 21.875 L 31.25 25 L 28.125 25 Z M 28.125 21.875 "/>
<path style=" stroke:none;fill-rule:nonzero;fill:rgb(100%,90.980393%,36.862746%);fill-opacity:1;" d="M 31.25 21.875 L 34.375 21.875 L 34.375 25 L 31.25 25 Z M 31.25 21.875 "/>
<path style=" stroke:none;fill-rule:nonzero;fill:rgb(100%,100%,98.431373%);fill-opacity:1;" d="M 34.375 21.875 L 37.5 21.875 L 37.5 25 L 34.375 25 Z M 34.375 21.875 "/>
<path style=" stroke:none;fill-rule:nonzero;fill:rgb(100%,69.01961%,22.352941%);fill-opacity:1;" d="M 37.5 21.875 L 40.625 21.875 L 40.625 25 L 37.5 25 Z M 37.5 21.875 "/>
<path style=" stroke:none;fill-rule:nonzero;fill:rgb(100%,90.980393%,36.862746%);fill-opacity:1;" d="M 40.625 21.875 L 43.75 21.875 L 43.75 25 L 40.625 25 Z M 40.625 21.875 "/>
<path style=" stroke:none;fill-rule:nonzero;fill:rgb(85.882354%,44.313726%,1.176471%);fill-opacity:1;" d="M 43.75 21.875 L 46.875 21.875 L 46.875 25 L 43.75 25 Z M 43.75 21.875 "/>
<path style=" stroke:none;fill-rule:nonzero;fill:rgb(0%,0%,0%);fill-opacity:1;" d="M 46.875 21.875 L 50 21.875 L 50 25 L 46.875 25 Z M 46.875 21.875 "/>
<path style=" stroke:none;fill-rule:nonzero;fill:rgb(0%,0%,0%);fill-opacity:1;" d="M 0 25 L 3.125 25 L 3.125 28.125 L 0 28.125 Z M 0 25 "/>
<path style=" stroke:none;fill-rule:nonzero;fill:rgb(100%,69.01961%,22.352941%);fill-opacity:1;" d="M 3.125 25 L 6.25 25 L 6.25 28.125 L 3.125 28.125 Z M 3.125 25 "/>
<path style=" stroke:none;fill-rule:nonzero;fill:rgb(100%,90.980393%,36.862746%);fill-opacity:1;" d="M 6.25 25 L 9.375 25 L 9.375 28.125 L 6.25 28.125 Z M 6.25 25 "/>
<path style=" stroke:none;fill-rule:nonzero;fill:rgb(85.882354%,44.313726%,1.176471%);fill-opacity:1;" d="M 9.375 25 L 12.5 25 L 12.5 28.125 L 9.375 28.125 Z M 9.375 25 "/>
<path style=" stroke:none;fill-rule:nonzero;fill:rgb(100%,69.01961%,22.352941%);fill-opacity:1;" d="M 12.5 25 L 15.625 25 L 15.625 28.125 L 12.5 28.125 Z M 12.5 25 "/>
<path style=" stroke:none;fill-rule:nonzero;fill:rgb(100%,69.01961%,22.352941%);fill-opacity:1;" d="M 15.625 25 L 18.75 25 L 18.75 28.125 L 15.625 28.125 Z M 15.625 25 "/>
<path style=" stroke:none;fill-rule:nonzero;fill:rgb(100%,90.980393%,36.862746%);fill-opacity:1;" d="M 18.75 25 L 21.875 25 L 21.875 28.125 L 18.75 28.125 Z M 18.75 25 "/>
<path style=" stroke:none;fill-rule:nonzero;fill:rgb(100%,90.980393%,36.862746%);fill-opacity:1;" d="M 21.875 25 L 25 25 L 25 28.125 L 21.875 28.125 Z M 21.875 25 "/>
<path style=" stroke:none;fill-rule:nonzero;fill:rgb(100%,90.980393%,36.862746%);fill-opacity:1;" d="M 25 25 L 28.125 25 L 28.125 28.125 L 25 28.125 Z M 25 25 "/>
<path style=" stroke:none;fill-rule:nonzero;fill:rgb(100%,90.980393%,36.862746%);fill-opacity:1;" d="M 28.125 25 L 31.25 25 L 31.25 28.125 L 28.125 28.125 Z M 28.125 25 "/>
<path style=" stroke:none;fill-rule:nonzero;fill:rgb(100%,90.980393%,36.862746%);fill-opacity:1;" d="M 31.25 25 L 34.375 25 L 34.375 28.125 L 31.25 28.125 Z M 31.25 25 "/>
<path style=" stroke:none;fill-rule:nonzero;fill:rgb(100%,100%,98.431373%);fill-opacity:1;" d="M 34.375 25 L 37.5 25 L 37.5 28.125 L 34.375 28.125 Z M 34.375 25 "/>
<path style=" stroke:none;fill-rule:nonzero;fill:rgb(100%,69.01961%,22.352941%);fill-opacity:1;" d="M 37.5 25 L 40.625 25 L 40.625 28.125 L 37.5 28.125 Z M 37.5 25 "/>
<path style=" stroke:none;fill-rule:nonzero;fill:rgb(100%,90.980393%,36.862746%);fill-opacity:1;" d="M 40.625 25 L 43.75 25 L 43.75 28.125 L 40.625 28.125 Z M 40.625 25 "/>
<path style=" stroke:none;fill-rule:nonzero;fill:rgb(85.882354%,44.313726%,1.176471%);fill-opacity:1;" d="M 43.75 25 L 46.875 25 L 46.875 28.125 L 43.75 28.125 Z M 43.75 25 "/>
<path style=" stroke:none;fill-rule:nonzero;fill:rgb(0%,0%,0%);fill-opacity:1;" d="M 46.875 25 L 50 25 L 50 28.125 L 46.875 28.125 Z M 46.875 25 "/>
<path style=" stroke:none;fill-rule:nonzero;fill:rgb(0%,0%,0%);fill-opacity:1;" d="M 0 28.125 L 3.125 28.125 L 3.125 31.25 L 0 31.25 Z M 0 28.125 "/>
<path style=" stroke:none;fill-rule:nonzero;fill:rgb(100%,69.01961%,22.352941%);fill-opacity:1;" d="M 3.125 28.125 L 6.25 28.125 L 6.25 31.25 L 3.125 31.25 Z M 3.125 28.125 "/>
<path style=" stroke:none;fill-rule:nonzero;fill:rgb(100%,90.980393%,36.862746%);fill-opacity:1;" d="M 6.25 28.125 L 9.375 28.125 L 9.375 31.25 L 6.25 31.25 Z M 6.25 28.125 "/>
<path style=" stroke:none;fill-rule:nonzero;fill:rgb(85.882354%,44.313726%,1.176471%);fill-opacity:1;" d="M 9.375 28.125 L 12.5 28.125 L 12.5 31.25 L 9.375 31.25 Z M 9.375 28.125 "/>
<path style=" stroke:none;fill-rule:nonzero;fill:rgb(100%,69.01961%,22.352941%);fill-opacity:1;" d="M 12.5 28.125 L 15.625 28.125 L 15.625 31.25 L 12.5 31.25 Z M 12.5 28.125 "/>
<path style=" stroke:none;fill-rule:nonzero;fill:rgb(100%,90.980393%,36.862746%);fill-opacity:1;" d="M 15.625 28.125 L 18.75 28.125 L 18.75 31.25 L 15.625 31.25 Z M 15.625 28.125 "/>
<path style=" stroke:none;fill-rule:nonzero;fill:rgb(100%,90.980393%,36.862746%);fill-opacity:1;" d="M 18.75 28.125 L 21.875 28.125 L 21.875 31.25 L 18.75 31.25 Z M 18.75 28.125 "/>
<path style=" stroke:none;fill-rule:nonzero;fill:rgb(100%,90.980393%,36.862746%);fill-opacity:1;" d="M 21.875 28.125 L 25 28.125 L 25 31.25 L 21.875 31.25 Z M 21.875 28.125 "/>
<path style=" stroke:none;fill-rule:nonzero;fill:rgb(100%,90.980393%,36.862746%);fill-opacity:1;" d="M 25 28.125 L 28.125 28.125 L 28.125 31.25 L 25 31.25 Z M 25 28.125 "/>
<path style=" stroke:none;fill-rule:nonzero;fill:rgb(100%,90.980393%,36.862746%);fill-opacity:1;" d="M 28.125 28.125 L 31.25 28.125 L 31.25 31.25 L 28.125 31.25 Z M 28.125 28.125 "/>
<path style=" stroke:none;fill-rule:nonzero;fill:rgb(100%,90.980393%,36.862746%);fill-opacity:1;" d="M 31.25 28.125 L 34.375 28.125 L 34.375 31.25 L 31.25 31.25 Z M 31.25 28.125 "/>
<path style=" stroke:none;fill-rule:nonzero;fill:rgb(100%,100%,98.431373%);fill-opacity:1;" d="M 34.375 28.125 L 37.5 28.125 L 37.5 31.25 L 34.375 31.25 Z M 34.375 28.125 "/>
<path style=" stroke:none;fill-rule:nonzero;fill:rgb(100%,69.01961%,22.352941%);fill-opacity:1;" d="M 37.5 28.125 L 40.625 28.125 L 40.625 31.25 L 37.5 31.25 Z M 37.5 28.125 "/>
<path style=" stroke:none;fill-rule:nonzero;fill:rgb(100%,90.980393%,36.862746%);fill-opacity:1;" d="M 40.625 28.125 L 43.75 28.125 L 43.75 31.25 L 40.625 31.25 Z M 40.625 28.125 "/>
<path style=" stroke:none;fill-rule:nonzero;fill:rgb(85.882354%,44.313726%,1.176471%);fill-opacity:1;" d="M 43.75 28.125 L 46.875 28.125 L 46.875 31.25 L 43.75 31.25 Z M 43.75 28.125 "/>
<path style=" stroke:none;fill-rule:nonzero;fill:rgb(0%,0%,0%);fill-opacity:1;" d="M 46.875 28.125 L 50 28.125 L 50 31.25 L 46.875 31.25 Z M 46.875 28.125 "/>
<path style=" stroke:none;fill-rule:nonzero;fill:rgb(0%,0%,0%);fill-opacity:1;" d="M 0 31.25 L 3.125 31.25 L 3.125 34.375 L 0 34.375 Z M 0 31.25 "/>
<path style=" stroke:none;fill-rule:nonzero;fill:rgb(100%,69.01961%,22.352941%);fill-opacity:1;" d="M 3.125 31.25 L 6.25 31.25 L 6.25 34.375 L 3.125 34.375 Z M 3.125 31.25 "/>
<path style=" stroke:none;fill-rule:nonzero;fill:rgb(100%,90.980393%,36.862746%);fill-opacity:1;" d="M 6.25 31.25 L 9.375 31.25 L 9.375 34.375 L 6.25 34.375 Z M 6.25 31.25 "/>
<path style=" stroke:none;fill-rule:nonzero;fill:rgb(100%,90.980393%,36.862746%);fill-opacity:1;" d="M 9.375 31.25 L 12.5 31.25 L 12.5 34.375 L 9.375 34.375 Z M 9.375 31.25 "/>
<path style=" stroke:none;fill-rule:nonzero;fill:rgb(85.882354%,44.313726%,1.176471%);fill-opacity:1;" d="M 12.5 31.25 L 15.625 31.25 L 15.625 34.375 L 12.5 34.375 Z M 12.5 31.25 "/>
<path style=" stroke:none;fill-rule:nonzero;fill:rgb(100%,90.980393%,36.862746%);fill-opacity:1;" d="M 15.625 31.25 L 18.75 31.25 L 18.75 34.375 L 15.625 34.375 Z M 15.625 31.25 "/>
<path style=" stroke:none;fill-rule:nonzero;fill:rgb(100%,90.980393%,36.862746%);fill-opacity:1;" d="M 18.75 31.25 L 21.875 31.25 L 21.875 34.375 L 18.75 34.375 Z M 18.75 31.25 "/>
<path style=" stroke:none;fill-rule:nonzero;fill:rgb(100%,90.980393%,36.862746%);fill-opacity:1;" d="M 21.875 31.25 L 25 31.25 L 25 34.375 L 21.875 34.375 Z M 21.875 31.25 "/>
<path style=" stroke:none;fill-rule:nonzero;fill:rgb(100%,90.980393%,36.862746%);fill-opacity:1;" d="M 25 31.25 L 28.125 31.25 L 28.125 34.375 L 25 34.375 Z M 25 31.25 "/>
<path style=" stroke:none;fill-rule:nonzero;fill:rgb(100%,90.980393%,36.862746%);fill-opacity:1;" d="M 28.125 31.25 L 31.25 31.25 L 31.25 34.375 L 28.125 34.375 Z M 28.125 31.25 "/>
<path style=" stroke:none;fill-rule:nonzero;fill:rgb(100%,100%,98.431373%);fill-opacity:1;" d="M 31.25 31.25 L 34.375 31.25 L 34.375 34.375 L 31.25 34.375 Z M 31.25 31.25 "/>
<path style=" stroke:none;fill-rule:nonzero;fill:rgb(100%,69.01961%,22.352941%);fill-opacity:1;" d="M 34.375 31.25 L 37.5 31.25 L 37.5 34.375 L 34.375 34.375 Z M 34.375 31.25 "/>
<path style=" stroke:none;fill-rule:nonzero;fill:rgb(100%,90.980393%,36.862746%);fill-opacity:1;" d="M 37.5 31.25 L 40.625 31.25 L 40.625 34.375 L 37.5 34.375 Z M 37.5 31.25 "/>
<path style=" stroke:none;fill-rule:nonzero;fill:rgb(100%,90.980393%,36.862746%);fill-opacity:1;" d="M 40.625 31.25 L 43.75 31.25 L 43.75 34.375 L 40.625 34.375 Z M 40.625 31.25 "/>
<path style=" stroke:none;fill-rule:nonzero;fill:rgb(85.882354%,44.313726%,1.176471%);fill-opacity:1;" d="M 43.75 31.25 L 46.875 31.25 L 46.875 34.375 L 43.75 34.375 Z M 43.75 31.25 "/>
<path style=" stroke:none;fill-rule:nonzero;fill:rgb(0%,0%,0%);fill-opacity:1;" d="M 46.875 31.25 L 50 31.25 L 50 34.375 L 46.875 34.375 Z M 46.875 31.25 "/>
<path style=" stroke:none;fill-rule:nonzero;fill:rgb(0%,0%,0%);fill-opacity:1;" d="M 3.125 34.375 L 6.25 34.375 L 6.25 37.5 L 3.125 37.5 Z M 3.125 34.375 "/>
<path style=" stroke:none;fill-rule:nonzero;fill:rgb(100%,69.01961%,22.352941%);fill-opacity:1;" d="M 6.25 34.375 L 9.375 34.375 L 9.375 37.5 L 6.25 37.5 Z M 6.25 34.375 "/>
<path style=" stroke:none;fill-rule:nonzero;fill:rgb(100%,90.980393%,36.862746%);fill-opacity:1;" d="M 9.375 34.375 L 12.5 34.375 L 12.5 37.5 L 9.375 37.5 Z M 9.375 34.375 "/>
<path style=" stroke:none;fill-rule:nonzero;fill:rgb(85.882354%,44.313726%,1.176471%);fill-opacity:1;" d="M 12.5 34.375 L 15.625 34.375 L 15.625 37.5 L 12.5 37.5 Z M 12.5 34.375 "/>
<path style=" stroke:none;fill-rule:nonzero;fill:rgb(85.882354%,44.313726%,1.176471%);fill-opacity:1;" d="M 15.625 34.375 L 18.75 34.375 L 18.75 37.5 L 15.625 37.5 Z M 15.625 34.375 "/>
<path style=" stroke:none;fill-rule:nonzero;fill:rgb(100%,90.980393%,36.862746%);fill-opacity:1;" d="M 18.75 34.375 L 21.875 34.375 L 21.875 37.5 L 18.75 37.5 Z M 18.75 34.375 "/>
<path style=" stroke:none;fill-rule:nonzero;fill:rgb(100%,100%,98.431373%);fill-opacity:1;" d="M 21.875 34.375 L 25 34.375 L 25 37.5 L 21.875 37.5 Z M 21.875 34.375 "/>
<path style=" stroke:none;fill-rule:nonzero;fill:rgb(100%,100%,98.431373%);fill-opacity:1;" d="M 25 34.375 L 28.125 34.375 L 28.125 37.5 L 25 37.5 Z M 25 34.375 "/>
<path style=" stroke:none;fill-rule:nonzero;fill:rgb(100%,100%,98.431373%);fill-opacity:1;" d="M 28.125 34.375 L 31.25 34.375 L 31.25 37.5 L 28.125 37.5 Z M 28.125 34.375 "/>
<path style=" stroke:none;fill-rule:nonzero;fill:rgb(100%,69.01961%,22.352941%);fill-opacity:1;" d="M 31.25 34.375 L 34.375 34.375 L 34.375 37.5 L 31.25 37.5 Z M 31.25 34.375 "/>
<path style=" stroke:none;fill-rule:nonzero;fill:rgb(100%,69.01961%,22.352941%);fill-opacity:1;" d="M 34.375 34.375 L 37.5 34.375 L 37.5 37.5 L 34.375 37.5 Z M 34.375 34.375 "/>
<path style=" stroke:none;fill-rule:nonzero;fill:rgb(100%,90.980393%,36.862746%);fill-opacity:1;" d="M 37.5 34.375 L 40.625 34.375 L 40.625 37.5 L 37.5 37.5 Z M 37.5 34.375 "/>
<path style=" stroke:none;fill-rule:nonzero;fill:rgb(85.882354%,44.313726%,1.176471%);fill-opacity:1;" d="M 40.625 34.375 L 43.75 34.375 L 43.75 37.5 L 40.625 37.5 Z M 40.625 34.375 "/>
<path style=" stroke:none;fill-rule:nonzero;fill:rgb(0%,0%,0%);fill-opacity:1;" d="M 43.75 34.375 L 46.875 34.375 L 46.875 37.5 L 43.75 37.5 Z M 43.75 34.375 "/>
<path style=" stroke:none;fill-rule:nonzero;fill:rgb(0%,0%,0%);fill-opacity:1;" d="M 3.125 37.5 L 6.25 37.5 L 6.25 40.625 L 3.125 40.625 Z M 3.125 37.5 "/>
<path style=" stroke:none;fill-rule:nonzero;fill:rgb(100%,69.01961%,22.352941%);fill-opacity:1;" d="M 6.25 37.5 L 9.375 37.5 L 9.375 40.625 L 6.25 40.625 Z M 6.25 37.5 "/>
<path style=" stroke:none;fill-rule:nonzero;fill:rgb(100%,90.980393%,36.862746%);fill-opacity:1;" d="M 9.375 37.5 L 12.5 37.5 L 12.5 40.625 L 9.375 40.625 Z M 9.375 37.5 "/>
<path style=" stroke:none;fill-rule:nonzero;fill:rgb(100%,90.980393%,36.862746%);fill-opacity:1;" d="M 12.5 37.5 L 15.625 37.5 L 15.625 40.625 L 12.5 40.625 Z M 12.5 37.5 "/>
<path style=" stroke:none;fill-rule:nonzero;fill:rgb(100%,90.980393%,36.862746%);fill-opacity:1;" d="M 15.625 37.5 L 18.75 37.5 L 18.75 40.625 L 15.625 40.625 Z M 15.625 37.5 "/>
<path style=" stroke:none;fill-rule:nonzero;fill:rgb(100%,69.01961%,22.352941%);fill-opacity:1;" d="M 18.75 37.5 L 21.875 37.5 L 21.875 40.625 L 18.75 40.625 Z M 18.75 37.5 "/>
<path style=" stroke:none;fill-rule:nonzero;fill:rgb(100%,69.01961%,22.352941%);fill-opacity:1;" d="M 21.875 37.5 L 25 37.5 L 25 40.625 L 21.875 40.625 Z M 21.875 37.5 "/>
<path style=" stroke:none;fill-rule:nonzero;fill:rgb(100%,69.01961%,22.352941%);fill-opacity:1;" d="M 25 37.5 L 28.125 37.5 L 28.125 40.625 L 25 40.625 Z M 25 37.5 "/>
<path style=" stroke:none;fill-rule:nonzero;fill:rgb(100%,69.01961%,22.352941%);fill-opacity:1;" d="M 28.125 37.5 L 31.25 37.5 L 31.25 40.625 L 28.125 40.625 Z M 28.125 37.5 "/>
<path style=" stroke:none;fill-rule:nonzero;fill:rgb(100%,90.980393%,36.862746%);fill-opacity:1;" d="M 31.25 37.5 L 34.375 37.5 L 34.375 40.625 L 31.25 40.625 Z M 31.25 37.5 "/>
<path style=" stroke:none;fill-rule:nonzero;fill:rgb(100%,90.980393%,36.862746%);fill-opacity:1;" d="M 34.375 37.5 L 37.5 37.5 L 37.5 40.625 L 34.375 40.625 Z M 34.375 37.5 "/>
<path style=" stroke:none;fill-rule:nonzero;fill:rgb(100%,90.980393%,36.862746%);fill-opacity:1;" d="M 37.5 37.5 L 40.625 37.5 L 40.625 40.625 L 37.5 40.625 Z M 37.5 37.5 "/>
<path style=" stroke:none;fill-rule:nonzero;fill:rgb(85.882354%,44.313726%,1.176471%);fill-opacity:1;" d="M 40.625 37.5 L 43.75 37.5 L 43.75 40.625 L 40.625 40.625 Z M 40.625 37.5 "/>
<path style=" stroke:none;fill-rule:nonzero;fill:rgb(0%,0%,0%);fill-opacity:1;" d="M 43.75 37.5 L 46.875 37.5 L 46.875 40.625 L 43.75 40.625 Z M 43.75 37.5 "/>
<path style=" stroke:none;fill-rule:nonzero;fill:rgb(0%,0%,0%);fill-opacity:1;" d="M 6.25 40.625 L 9.375 40.625 L 9.375 43.75 L 6.25 43.75 Z M 6.25 40.625 "/>
<path style=" stroke:none;fill-rule:nonzero;fill:rgb(100%,69.01961%,22.352941%);fill-opacity:1;" d="M 9.375 40.625 L 12.5 40.625 L 12.5 43.75 L 9.375 43.75 Z M 9.375 40.625 "/>
<path style=" stroke:none;fill-rule:nonzero;fill:rgb(100%,69.01961%,22.352941%);fill-opacity:1;" d="M 12.5 40.625 L 15.625 40.625 L 15.625 43.75 L 12.5 43.75 Z M 12.5 40.625 "/>
<path style=" stroke:none;fill-rule:nonzero;fill:rgb(100%,90.980393%,36.862746%);fill-opacity:1;" d="M 15.625 40.625 L 18.75 40.625 L 18.75 43.75 L 15.625 43.75 Z M 15.625 40.625 "/>
<path style=" stroke:none;fill-rule:nonzero;fill:rgb(100%,90.980393%,36.862746%);fill-opacity:1;" d="M 18.75 40.625 L 21.875 40.625 L 21.875 43.75 L 18.75 43.75 Z M 18.75 40.625 "/>
<path style=" stroke:none;fill-rule:nonzero;fill:rgb(100%,90.980393%,36.862746%);fill-opacity:1;" d="M 21.875 40.625 L 25 40.625 L 25 43.75 L 21.875 43.75 Z M 21.875 40.625 "/>
<path style=" stroke:none;fill-rule:nonzero;fill:rgb(100%,90.980393%,36.862746%);fill-opacity:1;" d="M 25 40.625 L 28.125 40.625 L 28.125 43.75 L 25 43.75 Z M 25 40.625 "/>
<path style=" stroke:none;fill-rule:nonzero;fill:rgb(100%,90.980393%,36.862746%);fill-opacity:1;" d="M 28.125 40.625 L 31.25 40.625 L 31.25 43.75 L 28.125 43.75 Z M 28.125 40.625 "/>
<path style=" stroke:none;fill-rule:nonzero;fill:rgb(100%,90.980393%,36.862746%);fill-opacity:1;" d="M 31.25 40.625 L 34.375 40.625 L 34.375 43.75 L 31.25 43.75 Z M 31.25 40.625 "/>
<path style=" stroke:none;fill-rule:nonzero;fill:rgb(85.882354%,44.313726%,1.176471%);fill-opacity:1;" d="M 34.375 40.625 L 37.5 40.625 L 37.5 43.75 L 34.375 43.75 Z M 34.375 40.625 "/>
<path style=" stroke:none;fill-rule:nonzero;fill:rgb(85.882354%,44.313726%,1.176471%);fill-opacity:1;" d="M 37.5 40.625 L 40.625 40.625 L 40.625 43.75 L 37.5 43.75 Z M 37.5 40.625 "/>
<path style=" stroke:none;fill-rule:nonzero;fill:rgb(0%,0%,0%);fill-opacity:1;" d="M 40.625 40.625 L 43.75 40.625 L 43.75 43.75 L 40.625 43.75 Z M 40.625 40.625 "/>
<path style=" stroke:none;fill-rule:nonzero;fill:rgb(0%,0%,0%);fill-opacity:1;" d="M 9.375 43.75 L 12.5 43.75 L 12.5 46.875 L 9.375 46.875 Z M 9.375 43.75 "/>
<path style=" stroke:none;fill-rule:nonzero;fill:rgb(0%,0%,0%);fill-opacity:1;" d="M 12.5 43.75 L 15.625 43.75 L 15.625 46.875 L 12.5 46.875 Z M 12.5 43.75 "/>
<path style=" stroke:none;fill-rule:nonzero;fill:rgb(100%,69.01961%,22.352941%);fill-opacity:1;" d="M 15.625 43.75 L 18.75 43.75 L 18.75 46.875 L 15.625 46.875 Z M 15.625 43.75 "/>
<path style=" stroke:none;fill-rule:nonzero;fill:rgb(100%,69.01961%,22.352941%);fill-opacity:1;" d="M 18.75 43.75 L 21.875 43.75 L 21.875 46.875 L 18.75 46.875 Z M 18.75 43.75 "/>
<path style=" stroke:none;fill-rule:nonzero;fill:rgb(100%,69.01961%,22.352941%);fill-opacity:1;" d="M 21.875 43.75 L 25 43.75 L 25 46.875 L 21.875 46.875 Z M 21.875 43.75 "/>
<path style=" stroke:none;fill-rule:nonzero;fill:rgb(100%,69.01961%,22.352941%);fill-opacity:1;" d="M 25 43.75 L 28.125 43.75 L 28.125 46.875 L 25 46.875 Z M 25 43.75 "/>
<path style=" stroke:none;fill-rule:nonzero;fill:rgb(100%,69.01961%,22.352941%);fill-opacity:1;" d="M 28.125 43.75 L 31.25 43.75 L 31.25 46.875 L 28.125 46.875 Z M 28.125 43.75 "/>
<path style=" stroke:none;fill-rule:nonzero;fill:rgb(100%,69.01961%,22.352941%);fill-opacity:1;" d="M 31.25 43.75 L 34.375 43.75 L 34.375 46.875 L 31.25 46.875 Z M 31.25 43.75 "/>
<path style=" stroke:none;fill-rule:nonzero;fill:rgb(0%,0%,0%);fill-opacity:1;" d="M 34.375 43.75 L 37.5 43.75 L 37.5 46.875 L 34.375 46.875 Z M 34.375 43.75 "/>
<path style=" stroke:none;fill-rule:nonzero;fill:rgb(0%,0%,0%);fill-opacity:1;" d="M 37.5 43.75 L 40.625 43.75 L 40.625 46.875 L 37.5 46.875 Z M 37.5 43.75 "/>
<path style=" stroke:none;fill-rule:nonzero;fill:rgb(0%,0%,0%);fill-opacity:1;" d="M 15.625 46.875 L 18.75 46.875 L 18.75 50 L 15.625 50 Z M 15.625 46.875 "/>
<path style=" stroke:none;fill-rule:nonzero;fill:rgb(0%,0%,0%);fill-opacity:1;" d="M 18.75 46.875 L 21.875 46.875 L 21.875 50 L 18.75 50 Z M 18.75 46.875 "/>
<path style=" stroke:none;fill-rule:nonzero;fill:rgb(0%,0%,0%);fill-opacity:1;" d="M 21.875 46.875 L 25 46.875 L 25 50 L 21.875 50 Z M 21.875 46.875 "/>
<path style=" stroke:none;fill-rule:nonzero;fill:rgb(0%,0%,0%);fill-opacity:1;" d="M 25 46.875 L 28.125 46.875 L 28.125 50 L 25 50 Z M 25 46.875 "/>
<path style=" stroke:none;fill-rule:nonzero;fill:rgb(0%,0%,0%);fill-opacity:1;" d="M 28.125 46.875 L 31.25 46.875 L 31.25 50 L 28.125 50 Z M 28.125 46.875 "/>
<path style=" stroke:none;fill-rule:nonzero;fill:rgb(0%,0%,0%);fill-opacity:1;" d="M 31.25 46.875 L 34.375 46.875 L 34.375 50 L 31.25 50 Z M 31.25 46.875 "/>
</g>
</svg>
